PathFileType	4	(X/Y/Z)	C:\Users\WrightLab\Desktop\Jo\P3_7.trc
DataRate	CameraRate	NumFrames	NumMarkers	Units	OrigDataRate	OrigDataStartFrame	OrigNumFrames
100.00	100.00	       7	19	mm	100.00	73	       576
Frame#	Time	Headset_Front			Headset_Back			Headset_Left			Headset_Right			Left_Shoulder			Right_Shoulder			Sternum			C7			Left Elbow			Right Elbow			Left Wrist			Right Wrist			Left ASIS			Right ASIS			S2			Left Knee			Right Knee			Left Ankle			Right Ankle			
		X1	Y1	Z1	X2	Y2	Z2	X3	Y3	Z3	X4	Y4	Z4	X5	Y5	Z5	X6	Y6	Z6	X7	Y7	Z7	X8	Y8	Z8	X9	Y9	Z9	X10	Y10	Z10	X11	Y11	Z11	X12	Y12	Z12	X13	Y13	Z13	X14	Y14	Z14	X15	Y15	Z15	X16	Y16	Z16	X17	Y17	Z17	X18	Y18	Z18	X19	Y19	Z19	

73	0.720	-631.14465	1491.15613	-1131.14709	-521.24658	1468.32507	-1019.86902							-322.04822	1300.85059	-1200.61243	-669.43250	1299.37854	-1286.85913	-518.38568	1176.95313	-1121.65552				-240.29701	971.46698	-1205.06653	-650.98132	833.13281	-1188.43896	-274.04181	781.31866	-1121.18469	-783.25568	773.09283	-1207.61536	-406.50980	806.82227	-1142.46252							-348.80588	387.75464	-1267.78613	-651.57123	415.59778	-1149.07678				-640.55182	71.55302	-1166.99902	
74	0.730	-633.95654	1493.57263	-1123.37646	-524.71259	1470.98572	-1012.38104							-325.03491	1302.87085	-1194.15833	-673.44946	1301.51257	-1278.57239	-521.27295	1180.30823	-1114.06335				-244.95219	973.39819	-1196.72522	-739.25201	957.68030	-1327.54626	-277.45721	784.59869	-1109.92725	-790.49017	776.39954	-1194.14941	-410.22272	808.54041	-1136.23877							-353.79999	389.94724	-1245.36047	-652.41595	415.03967	-1145.97754				-640.62878	71.75121	-1164.15173	
75	0.740	-636.66553	1495.64355	-1114.56177	-528.33606	1473.03076	-1004.98846							-328.95795	1304.96350	-1187.63770	-677.28003	1303.37073	-1270.01660	-525.18634	1182.05859	-1106.31689				-248.93292	975.04449	-1188.53931	-744.67535	959.42859	-1316.95435	-281.54941	787.81891	-1097.09033	-793.20691	779.06433	-1182.76074	-413.36194	809.26105	-1127.66821							-361.28531	387.82248	-1226.86145	-653.08295	414.49762	-1142.80249				-640.38959	71.94640	-1163.13501	
76	0.750	-639.29901	1497.90125	-1106.68494	-531.74481	1475.38818	-997.05328							-332.48990	1306.45886	-1180.16431	-681.42322	1304.58667	-1261.51489	-527.89709	1183.51904	-1097.63147				-252.92374	976.78314	-1180.73511	-750.04712	961.25000	-1307.13062	-285.86942	790.69641	-1087.39136	-800.19214	782.28973	-1169.84009	-414.74399	811.50293	-1116.75537	-659.85016	833.63141	-1164.79675				-366.58975	390.58972	-1207.18921	-653.23871	414.34866	-1139.96887				-639.86646	72.58841	-1160.97595	
77	0.760	-641.79639	1499.92712	-1098.19165	-535.36285	1477.34900	-989.74091							-335.75610	1308.76477	-1175.84155	-684.81409	1305.51294	-1252.95056	-530.18079	1184.38477	-1090.12488	-505.69031	1357.61279	-1267.66333	-256.25909	978.18597	-1171.94250	-755.35712	962.51575	-1296.27747	-290.21933	793.31995	-1076.69482	-806.03131	786.51141	-1157.23999	-416.87589	814.03534	-1109.27136	-662.48523	834.26904	-1156.90430							-654.12158	414.07541	-1135.60669	-338.35651	194.11478	-1466.39758	-639.28253	72.00314	-1160.40002	
78	0.770	-644.28601	1501.45068	-1089.67798	-538.80780	1479.20959	-981.95801							-338.68185	1310.04089	-1169.08118	-687.61829	1307.27686	-1244.89197	-533.63477	1186.42493	-1082.63831	-509.36627	1358.45435	-1259.85071	-260.18466	979.54547	-1164.16138	-760.61652	964.00555	-1286.06653	-295.02731	796.37878	-1066.00928	-810.68146	788.58917	-1144.81750	-419.53320	816.16742	-1102.62366							-379.64587	391.55133	-1166.16113	-654.15131	413.21558	-1132.28589	-340.56699	200.75223	-1440.67065	-638.93866	72.47622	-1158.99573	
79	0.780	-646.62958	1502.93713	-1081.79749	-542.05072	1481.36023	-974.52753							-341.93347	1310.40442	-1159.62708	-691.36737	1308.92822	-1237.16370	-535.75806	1186.50281	-1075.21326	-512.57593	1359.77441	-1251.99854	-263.65881	980.26819	-1155.90637	-765.89063	965.17487	-1275.62451	-299.71521	798.82782	-1055.27002	-814.70844	791.12183	-1132.99194	-421.36185	817.91724	-1093.94727	-668.32617	834.84192	-1141.57617				-387.09549	392.12094	-1147.48682	-655.63464	414.03427	-1128.88843	-350.06491	201.66814	-1426.43054	-638.64844	72.85142	-1157.80322	
